<?xml version="1.0" encoding="utf-8"?>
<!-- Generator: Adobe Illustrator 21.0.0, SVG Export Plug-In . SVG Version: 6.00 Build 0)  -->
<svg version="1.1" id="Camada_1" xmlns="http://www.w3.org/2000/svg" xmlns:xlink="http://www.w3.org/1999/xlink" x="0px" y="0px"
	 viewBox="0 0 371.5 107.1" style="enable-background:new 0 0 371.5 107.1;" xml:space="preserve">
<style type="text/css">
	.st0{fill-rule:evenodd;clip-rule:evenodd;fill:#35A9FE;}
	.st1{fill:#35A9FE;}
</style>
<path class="st0" d="M65,12.9c22.2,0,40.1,18,40.1,40.1c0,22.2-18,40.1-40.1,40.1c-22.2,0-40.1-18-40.1-40.1
	c0-16.1,9.5-30,23.3-36.4c19.9-0.1,36.3,9.8,37.7,23.7c0.5,4.6-0.7,9-3.2,13.1c-2.7-2-6.1-3.3-9.7-3.3c-8.9,0-16.1,7.2-16.1,16.1
	c0,8.9,7.2,16.1,16.1,16.1c8.9,0,16.1-7.2,16.1-16.1c0-4.1-1.6-7.9-4.1-10.8c4.1-5,6.1-10.7,5.5-16.6C89,25.1,73.2,15.1,53.6,14.6
	C57.2,13.5,61,12.9,65,12.9"/>
<path class="st1" d="M201.5,58.9c0.8-4.2,2.7-6.4,5.7-6.4c3.2,0,3.9,3.7,3.9,5.6c0,0.5-0.7,0.9-2.1,0.9H201.5z M201.3,61.1h15.1
	c1.1,0,1.7-0.1,1.7-1c0-2.6-2.3-10-9.4-10c-5.4,0-8.2,1.2-10.9,4.6c-2.7,3.5-3.1,5.8-3.1,9.2c0,3.9,0.6,7,3.5,10.3
	c2.2,2.5,5,3.4,9,3.4c6.9,0,10.1-4.3,11.4-6.6c0.4-0.8,0.3-1.1,0-1.2l-0.9-0.6c-0.2-0.1-0.5-0.1-0.7,0.3c-1.3,2-3.7,3.6-7.6,3.6
	c-3.6,0-8.1-3.7-8.1-10.1V61.1z M184.3,77c0.1,0.5,0.4,0.8,0.9,0.8c0.5,0,0.9-0.1,1.2-0.2l7.7-2.2c0.2-0.1,0.4-0.2,0.3-0.6l-0.2-1
	c-0.1-0.2-0.2-0.3-0.7-0.2c-0.7,0.1-1.6,0.1-2,0.1c-0.5,0-1.1-0.2-1.4-2.1c-0.1-1.2-0.1-4.2-0.1-7.2v-4.5c0-6.2,0.4-7.8,0.4-8.4
	c0-0.2-0.1-0.6-0.5-0.6c-0.2,0-0.5,0.1-0.8,0.1c-0.3,0.1-0.6,0.1-1.1,0.1h-7.7c-0.6,0-0.7,0.1-0.7,0.5v1.1c0,0.2,0.1,0.4,1.2,0.5
	c1.5,0.1,2.7,0.5,2.7,2.1v14.7c0,0.7-0.4,1.6-0.7,2c-1,1.4-2.9,2.4-4.4,2.4c-1.4,0-2.7,0.1-4-1.7c-1.7-2.6-1.2-6.9-1.2-9.4v-3.9
	c0-4.3,0.2-7.2,0.2-7.8c0-0.4-0.2-0.7-0.6-0.7c-0.2,0-0.4,0.1-0.7,0.1c-0.2,0.1-0.6,0.1-0.9,0.1h-7.5c-0.6,0-0.7,0.1-0.7,0.5v1.1
	c0,0.4,0.4,0.4,1.4,0.5c1.1,0.1,2,0.7,2.2,2.2c0.1,0.7,0.1,3,0.1,4.5c0,1.3-0.1,3.4-0.1,6.4c0,3.5,0.1,5.8,2.3,8.7
	c2.2,2.8,4.2,2.8,6.4,2.8c3.2,0,6.9-2,8.2-4.3h0.4L184.3,77z M153.3,55.5v17.1c0,1.7-0.9,2.2-1.6,2.2h-2.4c-0.7,0-0.9,0.1-0.9,0.5
	v1.2c0,0.4,0.1,0.6,0.5,0.6c0.5,0,3-0.2,7.7-0.2c4.4,0,7.1,0.2,7.6,0.2c0.2,0,0.4-0.3,0.4-0.6v-1.1c0-0.4-0.1-0.6-0.7-0.6h-2.4
	c-1.4,0-1.5-0.9-1.6-2c-0.1-1.9-0.1-8.2-0.1-11.1v-9c0-3.4,0.1-16.4,0.2-19.8c0-0.9-0.2-1.1-0.6-1.1c-0.2,0-0.6,0.1-1.4,0.4
	c-2,1.2-6.9,2.9-9.4,3.6c-0.4,0.1-0.5,0.4-0.5,0.5V37c0,0.2,0,0.4,0.4,0.5l1.2,0.4c2,0.6,3.1,1.6,3.2,3.7c0.1,1.6,0.2,7,0.2,11.4
	V55.5z M123.8,47.6c0-5.2,0.1-10.6,0.2-11.8c0.1-0.5,0.4-0.9,0.8-1c0.5-0.1,1.2-0.1,1.9-0.1c1.9,0,4.9,0.6,7.1,2.2
	c2,1.5,2.7,4,2.7,6.4c0,2.7-0.9,5.5-3.2,7.4c-1.4,1.1-3.9,1.8-6.6,1.8c-1,0-1.9,0-2.9-0.1V47.6z M123.8,58.2v-3.9h1.6
	c2.1,0,4.7,0.1,7.1,1.1c3.5,1.4,6,4.6,6,9.7c0,7.6-4.5,9.9-9.4,9.9c-4,0-5.4-2.4-5.4-8.3V58.2z M116.1,57.1c0,5.1-0.1,13.4-0.2,14.9
	c-0.2,1.9-0.6,2.7-2.5,2.7h-2.7c-0.2,0-0.4,0.1-0.4,0.4v1.6c0,0.3,0.2,0.5,0.4,0.5c1.3,0,3.9-0.2,8.8-0.2c2.5,0,6.6,0.2,9.1,0.2
	c7,0,11-0.7,13.6-2.2c3-1.6,4.9-6.1,4.9-9.5c0-6.6-4.1-10.4-11.2-12.2v-0.3c5.9-2.2,8.5-5.2,8.5-10.2c0-3.7-1.2-6.6-4.7-8.5
	c-2.2-1.2-6.2-1.7-11-1.7c-3.4,0-7.1,0.2-9.1,0.2c-5.2,0.1-8.2-0.2-9.1-0.2c-0.4,0-0.5,0.2-0.5,0.6v1.4c0,0.4,0.1,0.5,0.5,0.5h2
	c2.4,0,3.4,0.1,3.6,3.7c0.1,1.1,0.2,8.7,0.2,10.9V57.1z"/>
<path class="st1" d="M321.1,94.8c3.3,0,4.4-2.4,5.3-4.1c1.1-2.1,3.6-7.9,6.6-14.8c4.3-9.8,8.4-19.3,9.8-21c0.6-0.8,1.5-1.1,2.2-1.1
	h1c0.3,0,0.3-0.2,0.3-0.6V52c0-0.2,0-0.5-0.4-0.5c-0.7,0-2.1,0.2-3.8,0.2c-3,0-4.3-0.2-5.1-0.2c-0.3,0-0.4,0.2-0.4,0.5v1.2
	c0,0.3,0.1,0.5,0.4,0.5h1c0.9,0,1.4,0.8,1.1,2.4c-0.4,1.6-5.8,14.5-6.4,15.5h-0.2c-0.7-1.4-4.9-15.1-5.1-16.5
	c-0.1-0.9,0.1-1.4,0.8-1.4h1.2c0.3,0,0.4-0.2,0.4-0.5V52c0-0.2-0.1-0.4-0.6-0.4c-0.7,0-2.6,0.2-5.8,0.2c-3.7,0-5.2-0.2-5.7-0.2
	c-0.4,0-0.5,0.2-0.5,0.4v1.2c0,0.4,0.1,0.6,0.5,0.6h1.6c1.6,0,2.2,1.1,2.9,2.6c0.5,1.3,7.1,20.8,7.4,22.4c-0.9,2.4-4.1,9.6-5,10.7
	c-0.4,0.4-0.9,0.4-1.3,0.4c-0.6-0.1-1.7-0.7-2.9-0.7c-1.5,0-2.9,1.1-2.9,2.4C317.5,93.4,318.7,94.8,321.1,94.8 M301,67
	c0,3.2,0,5.4-0.1,7.5c0,0.8-0.4,1.2-1.4,1.2h-2.4c-0.6,0-0.7,0.1-0.7,0.6v1.1c0,0.5,0.1,0.6,0.4,0.6c0.4,0,3-0.2,6.9-0.2
	c3.4,0,6.2,0.2,6.6,0.2c0.2,0,0.3-0.2,0.3-0.6v-1.1c0-0.4-0.1-0.6-0.4-0.6h-2.9c-1.3,0-1.7-0.6-1.7-2.6V60c0-0.2,0.2-1.3,0.6-2
	c1.1-2,2.7-2.6,3.7-2.6c0.8,0,1.6,0.2,2.1,0.5c0.5,0.2,1.1,0.5,1.8,0.5c1.1,0,2.6-1.2,2.6-3.1c0-1.4-1.1-2.7-3.2-2.7
	c-2.7,0-5.6,2.6-7.5,5.4h-0.2l-0.3-4.3c0-0.4-0.1-0.7-0.4-0.7c-0.2,0-0.5,0.1-0.9,0.2l-6.2,3.2c-0.4,0.2-0.5,0.3-0.5,0.6v0.4
	c0,0.2,0.1,0.3,0.5,0.4l1.2,0.6c1.7,0.9,2.2,1.6,2.2,4.7V67z M280.5,67c0,3.2,0,5.4-0.1,7.5c0,0.8-0.4,1.2-1.4,1.2h-2.4
	c-0.6,0-0.7,0.1-0.7,0.6v1.1c0,0.5,0.1,0.6,0.4,0.6c0.4,0,3-0.2,6.9-0.2c3.4,0,6.2,0.2,6.6,0.2c0.2,0,0.3-0.2,0.3-0.6v-1.1
	c0-0.4-0.1-0.6-0.4-0.6h-2.9c-1.3,0-1.7-0.6-1.7-2.6V60c0-0.2,0.2-1.3,0.6-2c1.1-2,2.7-2.6,3.7-2.6c0.8,0,1.6,0.2,2.1,0.5
	c0.5,0.2,1.1,0.5,1.8,0.5c1.1,0,2.6-1.2,2.6-3.1c0-1.4-1.1-2.7-3.2-2.7c-2.7,0-5.6,2.6-7.5,5.4h-0.2l-0.3-4.3c0-0.4-0.1-0.7-0.4-0.7
	c-0.2,0-0.5,0.1-0.9,0.2l-6.2,3.2c-0.4,0.2-0.5,0.3-0.5,0.6v0.4c0,0.2,0.1,0.3,0.5,0.4l1.2,0.6c1.7,0.9,2.2,1.6,2.2,4.7V67z
	 M256.2,59.3c1.2-4.6,3.8-6.4,6.6-6.4c4.1,0,4.8,4.1,4.8,5.6c0,0.6-0.5,0.9-1.7,0.9H256.2z M271.3,61.1c1,0,1.7-0.1,1.7-1
	c0-2.4-2-9.2-9.2-9.2c-3.1,0-6.2,0.6-8.9,3.3c-3.3,3.3-3.9,7.5-3.9,9.9c0,4.4,0.6,6.7,2.7,9.9c2.3,3.4,6.2,4.4,9.8,4.4
	c5.6,0,8.8-4.3,9.9-6.8c0.3-0.7,0.2-0.9,0-0.9l-0.8-0.4c-0.2-0.1-0.4,0.1-0.6,0.3c-1.1,2.1-3.7,4.2-7.6,4.2c-5,0-8.9-4.6-8.9-10.7
	c0-1.4,0.1-2.4,0.2-3H271.3z M227.1,56.2c1.4-1.4,3.6-2.2,5.9-2.2c6.1,0,9.3,5.7,9.3,11.8c0,8.2-4.6,10.7-8.4,10.7
	c-2.7,0-5.3-1.6-5.9-3.1c-0.7-2-0.9-3.9-0.9-9.1V56.2z M222.6,67.1c0,4.6,0,9.7-0.1,10.6c-0.1,0.3,0,0.4,0.2,0.5l0.7,0.2
	c0.4,0.1,0.6,0,0.8-0.2l2.5-1.4c1.4,0.9,3.9,1.6,7.4,1.6c7.1,0,13-6.9,13-14.2c0-8.9-5.9-13.4-11.4-13.4c-3.1,0-6.6,1.2-8.6,3.1
	v-7.2c0-5.6,0-12.7,0.1-13.2c0.1-0.7-0.1-1.1-0.5-1.1c-0.4,0-0.9,0.2-1.3,0.6c-1.6,1-4.8,2.6-6.6,3.4c-0.4,0.2-0.5,0.3-0.5,0.5v0.5
	c0,0.2,0.1,0.3,0.8,0.5l0.6,0.2c2.2,0.7,2.9,1.6,2.9,5.8V67.1z"/>
<path class="st0" d="M88.4,17.9c7.5,1,12.6-2.4,16-1.1c3,1.1,5.7,3.3,5.2,6.9c-7.5,1.3-14-0.4-15.2-4c1.1,4,6.9,6.4,14.5,6.3
	c-1.8,3.9-5.5,4.1-8.8,2.9C96.7,27.7,94.8,21.9,88.4,17.9"/>
</svg>
